<?xml version="1.0" standalone="no"?><!DOCTYPE svg PUBLIC "-//W3C//DTD SVG 1.1//EN" "http://www.w3.org/Graphics/SVG/1.1/DTD/svg11.dtd"><svg t="1575530267251" class="icon" viewBox="0 0 1191 1024" version="1.1" xmlns="http://www.w3.org/2000/svg" p-id="1204" xmlns:xlink="http://www.w3.org/1999/xlink" width="232.6171875" height="200"><defs><style type="text/css"></style></defs><path d="M1042.285714 0H148.897959C66.998857 0 0 65.828571 0 146.285714v731.428572c0 80.457143 66.998857 146.285714 148.897959 146.285714h893.387755C1124.184816 1024 1191.183673 958.171429 1191.183673 877.714286V146.285714c0-80.457143-66.998857-146.285714-148.897959-146.285714z m90.780735 805.741714L948.767347 574.756571c-23.029551-37.720816-69.109551-37.720816-99.829551-7.544163L633.981388 778.428082 411.313633 499.314939c-23.029551-30.155755-61.44-30.155755-92.16 0L58.138122 808.395755V137.236898c0-45.26498 30.72-75.441633 76.779102-75.441633h921.391021c38.389551 0 76.779102 37.720816 76.779102 75.441633v668.504816zM860.682449 251.569633a112.305633 112.305633 0 0 0-36.237061-23.781878 113.789388 113.789388 0 0 0-85.472653 0 112.033959 112.033959 0 0 0-36.216164 23.781878 109.902367 109.902367 0 0 0-24.220734 35.589224 108.314122 108.314122 0 0 0-8.50547 41.984c0 14.419592 2.904816 28.672 8.50547 41.984a109.923265 109.923265 0 0 0 24.220734 35.589225A112.013061 112.013061 0 0 0 738.951837 430.497959a113.789388 113.789388 0 0 0 85.472653 0 112.263837 112.263837 0 0 0 36.237061-23.781877 109.881469 109.881469 0 0 0 24.199837-35.589225c5.600653-13.312 8.505469-27.585306 8.505469-42.004898 0-14.336-2.925714-28.692898-8.505469-41.963102a109.923265 109.923265 0 0 0-24.199837-35.589224z" fill="#707070" p-id="1205"></path></svg>