<?xml version="1.0" standalone="no"?><!DOCTYPE svg PUBLIC "-//W3C//DTD SVG 1.1//EN" "http://www.w3.org/Graphics/SVG/1.1/DTD/svg11.dtd"><svg t="1575859482243" class="icon" viewBox="0 0 1024 1024" version="1.1" xmlns="http://www.w3.org/2000/svg" p-id="3316" xmlns:xlink="http://www.w3.org/1999/xlink" width="200" height="200"><defs><style type="text/css"></style></defs><path d="M512 1024C229.248 1024 0 794.752 0 512S229.248 0 512 0s512 229.248 512 512-229.248 512-512 512z m0-938.666667C276.352 85.333333 85.333333 276.352 85.333333 512s191.018667 426.666667 426.666667 426.666667 426.666667-191.018667 426.666667-426.666667S747.648 85.333333 512 85.333333z m253.269333 441.856c-0.725333 2.048-0.896 4.181333-1.962666 6.144-0.469333 0.938667-1.365333 1.450667-1.92 2.346667-1.450667 2.346667-3.370667 4.309333-5.290667 6.357333-1.749333 1.834667-3.370667 3.669333-5.418667 5.077334-0.853333 0.64-1.408 1.621333-2.346666 2.218666l-333.482667 205.184a42.410667 42.410667 0 0 1-24.661333 12.245334c-1.92 0.426667-3.797333 0.981333-5.76 1.152L384 768c-0.341333 0-0.597333-0.170667-0.938667-0.213333a37.930667 37.930667 0 0 1-29.098666-12.202667c-0.170667-0.128-0.256-0.341333-0.426667-0.512-2.346667-2.517333-4.906667-4.778667-6.656-8.021333-0.597333-1.109333-0.597333-2.304-1.066667-3.456-1.066667-2.176-1.536-4.565333-2.176-6.912-0.725333-2.730667-1.493333-5.333333-1.664-8.106667C341.888 727.424 341.333333 726.485333 341.333333 725.333333V299.648c-0.170667-7.594667 0.853333-15.274667 4.650667-22.314667a39.253333 39.253333 0 0 1 34.517333-20.650666C381.738667 256.597333 382.762667 256 384 256c0.554667 0 1.024 0.298667 1.621333 0.341333l0.341334 0.042667a41.941333 41.941333 0 0 1 29.781333 14.464l332.885333 204.202667c1.237333 0.768 1.962667 2.005333 3.114667 2.901333 0.682667 0.512 1.237333 1.194667 1.877333 1.792a40.661333 40.661333 0 0 1 8.917334 10.752l0.469333 0.554667c0.213333 0.469333 0.213333 0.981333 0.426667 1.450666 2.090667 4.224 3.541333 8.576 4.224 13.312 0.170667 1.28 0.170667 2.474667 0.256 3.712a45.653333 45.653333 0 0 1-0.768 11.776c-0.426667 2.048-1.194667 3.925333-1.877334 5.888zM426.666667 376.064v272.64l221.866666-136.533333-221.866666-136.106667z" p-id="3317"></path></svg>